<svg viewBox="0 0 100 100" fill="none" xmlns="http://www.w3.org/2000/svg">
  <defs>
    <linearGradient id="chronovaCrescentGrad" x1="10%" y1="0%" x2="90%" y2="100%">
      <stop offset="0%" stopColor="#6366f1" />
      <stop offset="50%" stopColor="#818cf8" />
      <stop offset="100%" stopColor="#38bdf8" />
    </linearGradient>
    <linearGradient id="chronovaNovaGrad" x1="0%" y1="50%" x2="100%" y2="50%">
      <stop offset="0%" stopColor="#f43f5e" />
      <stop offset="50%" stopColor="#f59e0b" />
      <stop offset="100%" stopColor="#fbbf24" />
    </linearGradient>
    <linearGradient id="chronovaOrbitGrad" x1="0%" y1="0%" x2="100%" y2="100%">
      <stop offset="0%" stopColor="#c084fc" stopOpacity="0.8" />
      <stop offset="100%" stopColor="#60a5fa" stopOpacity="0.4" />
    </linearGradient>
  </defs>

  <rect width="100" height="100" rx="28" fill="#e9e5fa" />

  <!-- Orbital ring -->
  <circle
    cx="50"
    cy="50"
    r="40"
    stroke="url(#chronovaOrbitGrad)"
    stroke-width="3"
    stroke-dasharray="4 6"
    opacity="0.7"
  />

  <!-- Outer Stylized 'C' Emblem (The Chrono Arc) -->
  <path
    d="M 68 24
       C 62 18, 54 14, 45 14
       C 25 14, 14 29, 14 50
       C 14 71, 25 86, 45 86
       C 55 86, 63 81, 70 74
       L 61 65
       C 56 70, 50 74, 44 74
       C 31 74, 25 63, 25 50
       C 25 37, 31 26, 44 26
       C 50 26, 56 30, 60 34
       Z"
    fill="url(#chronovaCrescentGrad)"
  />

  <!-- Curvilinear Radiant Nova Star -->
  <path
    d="M 58 28
       Q 59 47, 78 48
       Q 59 49, 58 68
       Q 57 49, 38 48
       Q 57 47, 58 28
       Z"
    fill="url(#chronovaNovaGrad)"
  />

  <!-- Center sparkles -->
  <circle cx="58" cy="48" r="3.5" fill="#ffffff" />
  <circle cx="78" cy="24" r="2.5" fill="#818cf8" opacity="0.85" />
  <circle cx="34" cy="74" r="2" fill="#38bdf8" opacity="0.75" />
</svg>
